<svg width="18" height="18" viewBox="0 0 18 18" fill="none" xmlns="http://www.w3.org/2000/svg">
<path d="M12.3914 9C12.3404 8.99906 12.2908 9.01608 12.2512 9.04808C12.2116 9.08008 12.1845 9.12502 12.1747 9.175L12.0164 10.275C11.7664 10.3833 11.5247 10.5167 11.308 10.6667L10.2747 10.25C10.183 10.25 10.0747 10.25 10.0164 10.3583L9.18302 11.8C9.13302 11.8917 9.14969 12 9.23302 12.0667L10.1164 12.75C10.0831 13.0268 10.0831 13.3066 10.1164 13.5833L9.23302 14.2667C9.19557 14.2988 9.1702 14.3427 9.16111 14.3912C9.15202 14.4397 9.15975 14.4898 9.18302 14.5333L10.0164 15.975C10.0664 16.0833 10.1747 16.0833 10.2747 16.0833L11.308 15.6667C11.5247 15.8167 11.758 15.9583 12.0164 16.0583L12.1747 17.1583C12.1914 17.2583 12.2747 17.3333 12.3914 17.3333H14.058C14.1497 17.3333 14.2414 17.2583 14.258 17.1583L14.4164 16.0583C14.6664 15.95 14.8914 15.8167 15.1164 15.6667L16.1414 16.0833C16.2497 16.0833 16.358 16.0833 16.4164 15.975L17.2497 14.5333C17.273 14.4898 17.2807 14.4397 17.2716 14.3912C17.2625 14.3427 17.2371 14.2988 17.1997 14.2667L16.308 13.5833C16.3247 13.4417 16.3414 13.3083 16.3414 13.1667C16.3414 13.025 16.333 12.8917 16.308 12.75L17.1914 12.0667C17.2288 12.0346 17.2542 11.9906 17.2633 11.9421C17.2724 11.8936 17.2646 11.8435 17.2414 11.8L16.408 10.3583C16.358 10.25 16.2497 10.25 16.1414 10.25L15.1164 10.6667C14.8914 10.5167 14.6664 10.375 14.408 10.275L14.2497 9.175C14.2444 9.12754 14.2221 9.0836 14.1868 9.0514C14.1516 9.0192 14.1058 9.00093 14.058 9H12.3914ZM13.2247 11.9167C13.9164 11.9167 14.4747 12.475 14.4747 13.1667C14.4747 13.8583 13.9164 14.4167 13.2247 14.4167C12.5247 14.4167 11.9747 13.8583 11.9747 13.1667C11.9747 12.475 12.533 11.9167 13.2247 11.9167ZM12.3914 7.4V0.666672H0.724686V15.6667H5.72469V12.75H7.41635C7.60802 10 9.69969 7.78334 12.3914 7.4ZM4.05802 14H2.39135V12.3333H4.05802V14ZM4.05802 10.6667H2.39135V9H4.05802V10.6667ZM4.05802 7.33334H2.39135V5.66667H4.05802V7.33334ZM4.05802 4.00001H2.39135V2.33334H4.05802V4.00001ZM9.05802 2.33334H10.7247V4.00001H9.05802V2.33334ZM9.05802 5.66667H10.7247V7.33334H9.05802V5.66667ZM7.39135 10.6667H5.72469V9H7.39135V10.6667ZM7.39135 7.33334H5.72469V5.66667H7.39135V7.33334ZM5.72469 4.00001V2.33334H7.39135V4.00001H5.72469Z" fill="#904272"/>
</svg>
