<svg width="20" height="20" viewBox="0 0 20 20" fill="none" xmlns="http://www.w3.org/2000/svg">
<g clip-path="url(#clip0_6_620)">
<path d="M17.2222 4.44444H12.2222V18.3333H18.3333V5.55555C18.3333 5.26087 18.2162 4.97825 18.0078 4.76988C17.7995 4.56151 17.5169 4.44444 17.2222 4.44444ZM14.4444 13.8889H13.3333V12.7778H14.4444V13.8889ZM14.4444 11.1111H13.3333V10H14.4444V11.1111ZM14.4444 8.33333H13.3333V7.22222H14.4444V8.33333ZM16.6666 13.8889H15.5555V12.7778H16.6666V13.8889ZM16.6666 11.1111H15.5555V10H16.6666V11.1111ZM16.6666 8.33333H15.5555V7.22222H16.6666V8.33333Z" fill="#9FA8C7"/>
<path d="M9.93328 1.66667H3.39995C3.08758 1.66667 2.78801 1.79076 2.56713 2.01163C2.34625 2.23251 2.22217 2.53208 2.22217 2.84445V18.3333H4.99995V16.6667H8.33328V18.3333H11.1111V2.84445C11.1111 2.53208 10.987 2.23251 10.7661 2.01163C10.5452 1.79076 10.2456 1.66667 9.93328 1.66667ZM4.99995 13.8889H3.88883V12.7778H4.99995V13.8889ZM4.99995 11.1111H3.88883V10H4.99995V11.1111ZM4.99995 8.33334H3.88883V7.22223H4.99995V8.33334ZM4.99995 5.55556H3.88883V4.44445H4.99995V5.55556ZM7.22217 13.8889H6.11106V12.7778H7.22217V13.8889ZM7.22217 11.1111H6.11106V10H7.22217V11.1111ZM7.22217 8.33334H6.11106V7.22223H7.22217V8.33334ZM7.22217 5.55556H6.11106V4.44445H7.22217V5.55556ZM9.44439 13.8889H8.33328V12.7778H9.44439V13.8889ZM9.44439 11.1111H8.33328V10H9.44439V11.1111ZM9.44439 8.33334H8.33328V7.22223H9.44439V8.33334ZM9.44439 5.55556H8.33328V4.44445H9.44439V5.55556Z" fill="#9FA8C7"/>
</g>
<defs>
<clipPath id="clip0_6_620">
<rect width="20" height="20" fill="white"/>
</clipPath>
</defs>
</svg>
