<svg width="20" height="20" viewBox="0 0 20 20" fill="none" xmlns="http://www.w3.org/2000/svg">
<path d="M16.281 16.0363C16.6694 15.4272 16.8901 14.6945 16.8901 13.9176C16.8901 11.7106 15.1246 9.94507 12.9176 9.94507C10.7106 9.94507 8.94507 11.7106 8.94507 13.9176C8.94507 16.1246 10.7106 17.8901 12.9176 17.8901C13.6856 17.8901 14.4095 17.6694 15.0186 17.2898L17.7729 20L19 18.7729L16.281 16.0363ZM12.9176 16.1246C12.3323 16.1246 11.7709 15.8921 11.357 15.4782C10.9432 15.0643 10.7106 14.5029 10.7106 13.9176C10.7106 13.3323 10.9432 12.7709 11.357 12.357C11.7709 11.9432 12.3323 11.7106 12.9176 11.7106C13.5029 11.7106 14.0643 11.9432 14.4782 12.357C14.8921 12.7709 15.1246 13.3323 15.1246 13.9176C15.1246 14.5029 14.8921 15.0643 14.4782 15.4782C14.0643 15.8921 13.5029 16.1246 12.9176 16.1246ZM3.64836 17.0074V9.94507H1L9.82786 2L18.6557 9.94507H17.049C16.0074 8.85924 14.5419 8.1795 12.9176 8.1795C9.75723 8.1795 7.1795 10.7572 7.1795 13.9176C7.1795 15.0564 7.51496 16.1246 8.08877 17.0074H3.64836Z" fill="#9FA8C7"/>
</svg>
