<svg width="25" height="25" viewBox="0 0 25 25" fill="none" xmlns="http://www.w3.org/2000/svg">
<path d="M8.33325 10.4167V8.33333C8.33325 5.45729 9.62388 3.125 12.4999 3.125C15.376 3.125 16.6666 5.45729 16.6666 8.33333V10.4167M12.4999 16.4062V15.8854M16.6666 16.4062V15.8854M8.33325 16.4062V15.8854M3.64575 18.5417V13.75C3.64575 12.5833 3.64575 12 3.87284 11.5552C4.07239 11.1628 4.39111 10.8438 4.78325 10.6438C5.22909 10.4177 5.81242 10.4177 6.97908 10.4177H18.0208C19.1874 10.4177 19.7708 10.4177 20.2166 10.6438C20.6086 10.8435 20.9273 11.1622 21.127 11.5542C21.3541 12 21.3541 12.5833 21.3541 13.75V18.5417C21.3541 19.7083 21.3541 20.2917 21.127 20.7375C20.9273 21.1295 20.6086 21.4482 20.2166 21.6479C19.7708 21.875 19.1874 21.875 18.0208 21.875H6.97908C5.81242 21.875 5.22909 21.875 4.78325 21.6479C4.39127 21.4482 4.07257 21.1295 3.87284 20.7375C3.64575 20.2927 3.64575 19.7094 3.64575 18.5417Z" stroke="#721C51" stroke-width="1.2" stroke-linecap="round" stroke-linejoin="round"/>
</svg>
