<svg width="20" height="20" viewBox="0 0 20 20" fill="none" xmlns="http://www.w3.org/2000/svg">
<path fill-rule="evenodd" clip-rule="evenodd" d="M13.4373 10C13.4373 9.83424 13.3715 9.67527 13.2543 9.55806C13.137 9.44085 12.9781 9.375 12.8123 9.375H3.66815L5.30231 7.975C5.36469 7.92159 5.41594 7.85643 5.45313 7.78322C5.49033 7.71001 5.51273 7.63019 5.51908 7.54832C5.52542 7.46645 5.51558 7.38413 5.49011 7.30606C5.46465 7.22799 5.42405 7.15571 5.37065 7.09333C5.31724 7.03095 5.25208 6.9797 5.17887 6.94251C5.10566 6.90532 5.02584 6.88291 4.94397 6.87656C4.8621 6.87022 4.77978 6.88006 4.70171 6.90553C4.62364 6.931 4.55136 6.97159 4.48898 7.025L1.57231 9.525C1.5037 9.58367 1.44862 9.65651 1.41084 9.73851C1.37307 9.82051 1.35352 9.90972 1.35352 10C1.35352 10.0903 1.37307 10.1795 1.41084 10.2615C1.44862 10.3435 1.5037 10.4163 1.57231 10.475L4.48898 12.975C4.61496 13.0829 4.77862 13.1362 4.94397 13.1234C5.10931 13.1106 5.26279 13.0326 5.37065 12.9067C5.4785 12.7807 5.53189 12.617 5.51908 12.4517C5.50626 12.2863 5.42829 12.1329 5.30231 12.025L3.66898 10.625H12.8123C12.9781 10.625 13.137 10.5591 13.2543 10.4419C13.3715 10.3247 13.4373 10.1658 13.4373 10Z" fill="#9FA8C7"/>
<path d="M7.8125 6.66667C7.8125 7.25167 7.8125 7.54417 7.95333 7.755C8.01399 7.84565 8.09185 7.92352 8.1825 7.98417C8.39333 8.12501 8.68583 8.125 9.27083 8.125H12.8125C13.3098 8.125 13.7867 8.32255 14.1383 8.67418C14.49 9.02581 14.6875 9.50272 14.6875 10C14.6875 10.4973 14.49 10.9742 14.1383 11.3258C13.7867 11.6775 13.3098 11.875 12.8125 11.875H9.27083C8.68583 11.875 8.39333 11.875 8.1825 12.015C8.09177 12.0759 8.0139 12.1541 7.95333 12.245C7.8125 12.4558 7.8125 12.7483 7.8125 13.3333C7.8125 15.69 7.8125 16.8692 8.545 17.6008C9.27667 18.3333 10.455 18.3333 12.8117 18.3333H13.645C16.0033 18.3333 17.1808 18.3333 17.9133 17.6008C18.6458 16.8692 18.6458 15.69 18.6458 13.3333V6.66667C18.6458 4.31 18.6458 3.13084 17.9133 2.39917C17.1808 1.66667 16.0025 1.66667 13.6458 1.66667H12.8125C10.455 1.66667 9.27667 1.66667 8.545 2.39917C7.8125 3.13084 7.8125 4.31 7.8125 6.66667Z" fill="#9FA8C7"/>
</svg>
