<svg width="20" height="20" viewBox="0 0 20 20" fill="none" xmlns="http://www.w3.org/2000/svg">
<g clip-path="url(#clip0_8_23)">
<path d="M9.1665 1.66666C8.06143 1.66666 7.00163 2.10565 6.22023 2.88705C5.43882 3.66845 4.99984 4.72826 4.99984 5.83333C4.99984 6.9384 5.43882 7.99821 6.22023 8.77961C7.00163 9.56101 8.06143 10 9.1665 10C10.2716 10 11.3314 9.56101 12.1128 8.77961C12.8942 7.99821 13.3332 6.9384 13.3332 5.83333C13.3332 4.72826 12.8942 3.66845 12.1128 2.88705C11.3314 2.10565 10.2716 1.66666 9.1665 1.66666ZM9.1665 10.8333C7.17067 10.8333 5.354 11.4117 4.01817 12.2267C3.3515 12.6333 2.7815 13.1133 2.36984 13.635C1.96484 14.1467 1.6665 14.7608 1.6665 15.4167C1.6665 16.1208 2.009 16.6758 2.50234 17.0717C2.969 17.4467 3.58484 17.695 4.239 17.8683C5.554 18.2158 7.309 18.3333 9.1665 18.3333L9.73734 18.3292C9.8769 18.3272 10.0137 18.2903 10.1353 18.2217C10.2569 18.1532 10.3593 18.0551 10.4331 17.9367C10.5069 17.8182 10.5498 17.6831 10.5578 17.5438C10.5659 17.4044 10.5388 17.2653 10.479 17.1392C10.1623 16.4706 9.9986 15.7398 9.99984 15C9.99984 13.9567 10.319 12.99 10.864 12.1892C10.945 12.0702 10.9938 11.9322 11.0056 11.7887C11.0175 11.6452 10.9919 11.5011 10.9315 11.3705C10.8711 11.2398 10.7778 11.127 10.6608 11.0431C10.5439 10.9592 10.4071 10.907 10.264 10.8917C9.90567 10.8533 9.539 10.8333 9.1665 10.8333ZM17.1798 12.8908C17.2354 12.796 17.2717 12.6912 17.2866 12.5823C17.3015 12.4734 17.2947 12.3626 17.2666 12.2564C17.2385 12.1501 17.1897 12.0505 17.1229 11.9632C17.0562 11.8759 16.9728 11.8026 16.8776 11.7477C16.7824 11.6927 16.6773 11.6572 16.5683 11.643C16.4594 11.6288 16.3487 11.6364 16.2426 11.6652C16.1365 11.694 16.0372 11.7434 15.9504 11.8108C15.8635 11.8781 15.7908 11.962 15.7365 12.0575L15.4565 12.5425C15.1544 12.4859 14.8445 12.4857 14.5423 12.5417L14.2632 12.0575C14.2088 11.962 14.1362 11.8781 14.0493 11.8108C13.9625 11.7434 13.8631 11.694 13.7571 11.6652C13.651 11.6364 13.5403 11.6288 13.4313 11.643C13.3223 11.6572 13.2172 11.6927 13.1221 11.7477C13.0269 11.8026 12.9435 11.8759 12.8768 11.9632C12.81 12.0505 12.7612 12.1501 12.7331 12.2564C12.705 12.3626 12.6982 12.4734 12.7131 12.5823C12.728 12.6912 12.7643 12.796 12.8198 12.8908L13.099 13.3742C12.8996 13.608 12.7451 13.8767 12.6432 14.1667H12.0832C11.8622 14.1667 11.6502 14.2545 11.4939 14.4107C11.3376 14.567 11.2498 14.779 11.2498 15C11.2498 15.221 11.3376 15.433 11.4939 15.5893C11.6502 15.7455 11.8622 15.8333 12.0832 15.8333H12.6423C12.7452 16.1229 12.9003 16.3912 13.0998 16.625L12.8198 17.1092C12.7643 17.204 12.728 17.3088 12.7131 17.4177C12.6982 17.5266 12.705 17.6374 12.7331 17.7436C12.7612 17.8499 12.81 17.9495 12.8768 18.0368C12.9435 18.1241 13.0269 18.1973 13.1221 18.2523C13.2172 18.3073 13.3223 18.3428 13.4313 18.357C13.5403 18.3712 13.651 18.3636 13.7571 18.3348C13.8631 18.306 13.9625 18.2566 14.0493 18.1892C14.1362 18.1219 14.2088 18.038 14.2632 17.9425L14.5432 17.4583C14.8423 17.5133 15.1515 17.515 15.4573 17.4583L15.7365 17.9425C15.7908 18.038 15.8635 18.1219 15.9504 18.1892C16.0372 18.2566 16.1365 18.306 16.2426 18.3348C16.3487 18.3636 16.4594 18.3712 16.5683 18.357C16.6773 18.3428 16.7824 18.3073 16.8776 18.2523C16.9728 18.1973 17.0562 18.1241 17.1229 18.0368C17.1897 17.9495 17.2385 17.8499 17.2666 17.7436C17.2947 17.6374 17.3015 17.5266 17.2866 17.4177C17.2717 17.3088 17.2354 17.204 17.1798 17.1092L16.9007 16.6258C17.1023 16.3892 17.2557 16.12 17.3565 15.8333H17.9165C18.1375 15.8333 18.3495 15.7455 18.5058 15.5893C18.662 15.433 18.7498 15.221 18.7498 15C18.7498 14.779 18.662 14.567 18.5058 14.4107C18.3495 14.2545 18.1375 14.1667 17.9165 14.1667H17.3573C17.2543 13.8771 17.0993 13.6088 16.8998 13.375L17.1798 12.8908Z" fill="#9FA8C7"/>
</g>
<defs>
<clipPath id="clip0_8_23">
<rect width="20" height="20" fill="white"/>
</clipPath>
</defs>
</svg>
