<svg width="20" height="20" viewBox="0 0 20 20" fill="none" xmlns="http://www.w3.org/2000/svg">
<path d="M5.17836 1.42857C4.56268 1.42857 3.97222 1.67315 3.53686 2.1085C3.10151 2.54385 2.85693 3.13432 2.85693 3.75V16.25C2.85693 16.8657 3.10151 17.4561 3.53686 17.8915C3.97222 18.3268 4.56268 18.5714 5.17836 18.5714H12.0126L10.4719 17.0307C10.3227 16.8815 10.2043 16.7043 10.1235 16.5093C10.0428 16.3143 10.0012 16.1053 10.0012 15.8943C10.0012 15.6832 10.0428 15.4742 10.1235 15.2793C10.2043 15.0843 10.3227 14.9071 10.4719 14.7579C10.6212 14.6086 10.7983 14.4902 10.9933 14.4095C11.1883 14.3287 11.3973 14.2871 11.6084 14.2871C11.8194 14.2871 12.0284 14.3287 12.2234 14.4095C12.4184 14.4902 12.5956 14.6086 12.7448 14.7579L13.7498 15.7629L16.8991 12.6136C16.9748 12.5379 17.0562 12.4707 17.1426 12.4136V3.75C17.1426 3.13432 16.8981 2.54385 16.4627 2.1085C16.0274 1.67315 15.4369 1.42857 14.8212 1.42857H5.17836ZM7.49979 6.25C7.49979 6.4868 7.40572 6.7139 7.23828 6.88135C7.07084 7.04879 6.84373 7.14286 6.60693 7.14286C6.37013 7.14286 6.14303 7.04879 5.97559 6.88135C5.80815 6.7139 5.71408 6.4868 5.71408 6.25C5.71408 6.0132 5.80815 5.7861 5.97559 5.61865C6.14303 5.45121 6.37013 5.35714 6.60693 5.35714C6.84373 5.35714 7.07084 5.45121 7.23828 5.61865C7.40572 5.7861 7.49979 6.0132 7.49979 6.25ZM6.60693 10.8929C6.37013 10.8929 6.14303 10.7988 5.97559 10.6313C5.80815 10.4639 5.71408 10.2368 5.71408 10C5.71408 9.7632 5.80815 9.5361 5.97559 9.36865C6.14303 9.20121 6.37013 9.10714 6.60693 9.10714C6.84373 9.10714 7.07084 9.20121 7.23828 9.36865C7.40572 9.5361 7.49979 9.7632 7.49979 10C7.49979 10.2368 7.40572 10.4639 7.23828 10.6313C7.07084 10.7988 6.84373 10.8929 6.60693 10.8929ZM6.60693 14.6429C6.37013 14.6429 6.14303 14.5488 5.97559 14.3813C5.80815 14.2139 5.71408 13.9868 5.71408 13.75C5.71408 13.5132 5.80815 13.2861 5.97559 13.1187C6.14303 12.9512 6.37013 12.8571 6.60693 12.8571C6.84373 12.8571 7.07084 12.9512 7.23828 13.1187C7.40572 13.2861 7.49979 13.5132 7.49979 13.75C7.49979 13.9868 7.40572 14.2139 7.23828 14.3813C7.07084 14.5488 6.84373 14.6429 6.60693 14.6429ZM9.10693 5.71429H13.7498C13.8919 5.71429 14.0281 5.77073 14.1286 5.87119C14.2291 5.97166 14.2855 6.10792 14.2855 6.25C14.2855 6.39208 14.2291 6.52834 14.1286 6.62881C14.0281 6.72927 13.8919 6.78571 13.7498 6.78571H9.10693C8.96485 6.78571 8.82859 6.72927 8.72813 6.62881C8.62766 6.52834 8.57122 6.39208 8.57122 6.25C8.57122 6.10792 8.62766 5.97166 8.72813 5.87119C8.82859 5.77073 8.96485 5.71429 9.10693 5.71429ZM8.57122 10C8.57122 9.85792 8.62766 9.72166 8.72813 9.62119C8.82859 9.52073 8.96485 9.46429 9.10693 9.46429H13.7498C13.8919 9.46429 14.0281 9.52073 14.1286 9.62119C14.2291 9.72166 14.2855 9.85792 14.2855 10C14.2855 10.1421 14.2291 10.2783 14.1286 10.3788C14.0281 10.4793 13.8919 10.5357 13.7498 10.5357H9.10693C8.96485 10.5357 8.82859 10.4793 8.72813 10.3788C8.62766 10.2783 8.57122 10.1421 8.57122 10ZM9.10693 13.2143H13.7498C13.8919 13.2143 14.0281 13.2707 14.1286 13.3712C14.2291 13.4717 14.2855 13.6079 14.2855 13.75C14.2855 13.8921 14.2291 14.0283 14.1286 14.1288C14.0281 14.2293 13.8919 14.2857 13.7498 14.2857H9.10693C8.96485 14.2857 8.82859 14.2293 8.72813 14.1288C8.62766 14.0283 8.57122 13.8921 8.57122 13.75C8.57122 13.6079 8.62766 13.4717 8.72813 13.3712C8.82859 13.2707 8.96485 13.2143 9.10693 13.2143ZM14.1284 18.4143L18.4141 14.1286C18.4667 14.0795 18.5089 14.0204 18.5382 13.9547C18.5675 13.889 18.5832 13.818 18.5845 13.7461C18.5858 13.6742 18.5725 13.6027 18.5456 13.536C18.5186 13.4693 18.4785 13.4087 18.4277 13.3578C18.3768 13.307 18.3162 13.2669 18.2495 13.2399C18.1828 13.213 18.1113 13.1997 18.0394 13.201C17.9675 13.2023 17.8965 13.218 17.8308 13.2473C17.7651 13.2766 17.706 13.3188 17.6569 13.3714L13.7498 17.2786L11.9869 15.5157C11.8854 15.4211 11.7511 15.3696 11.6123 15.372C11.4735 15.3745 11.3411 15.4307 11.2429 15.5288C11.1448 15.627 11.0885 15.7594 11.0861 15.8982C11.0836 16.037 11.1352 16.1713 11.2298 16.2729L13.3712 18.4143C13.4717 18.5146 13.6078 18.571 13.7498 18.571C13.8918 18.571 14.0279 18.5146 14.1284 18.4143Z" fill="#9FA8C7"/>
</svg>
